<?xml version="1.0" standalone="no"?>
<!DOCTYPE svg PUBLIC "-//W3C//DTD SVG 20010904//EN"
 "http://www.w3.org/TR/2001/REC-SVG-20010904/DTD/svg10.dtd">
<svg version="1.0" xmlns="http://www.w3.org/2000/svg"
 width="512.000000pt" height="512.000000pt" viewBox="0 0 512.000000 512.000000"
 preserveAspectRatio="xMidYMid meet">
<metadata>
Created by potrace 1.14, written by Peter Selinger 2001-2017
</metadata>
<g transform="translate(0.000000,512.000000) scale(0.100000,-0.100000)"
fill="#000000" stroke="none">
<path d="M3212 4451 c-7 -4 -19 -26 -27 -47 -13 -37 -15 -39 -67 -46 -29 -4
-56 -4 -60 0 -4 4 -8 23 -10 42 -3 30 -7 35 -28 35 -24 0 -25 -3 -22 -47 3
-45 2 -48 -25 -53 -192 -42 -422 -118 -603 -200 -69 -31 -130 -58 -135 -61 -6
-2 -15 6 -20 18 -16 36 -40 29 -43 -13 -3 -30 -9 -40 -41 -57 -21 -12 -43 -22
-48 -22 -5 0 -17 23 -27 50 -13 37 -23 50 -37 50 -30 0 -32 -23 -8 -81 16 -37
20 -54 11 -57 -23 -7 -267 -163 -352 -225 -335 -241 -542 -478 -626 -717 -34
-96 -64 -232 -75 -340 -5 -47 -17 -132 -27 -190 l-17 -105 -28 3 c-39 5 -47
-24 -14 -51 l26 -22 -75 -259 c-95 -332 -114 -425 -114 -564 0 -206 65 -355
225 -518 125 -127 354 -272 412 -261 14 2 37 -2 53 -9 89 -45 197 -40 380 16
142 44 252 67 490 106 364 58 544 110 765 218 424 208 751 534 955 951 108
221 165 414 242 813 36 193 32 186 123 207 39 9 50 16 50 31 0 23 -38 30 -89
15 -43 -11 -42 -24 -15 149 28 177 30 399 5 485 -50 174 -141 311 -285 429
-186 153 -396 229 -668 242 -73 4 -133 11 -133 16 0 4 5 17 12 27 11 18 6 51
-9 51 -4 0 -14 -4 -21 -9z m298 -206 c214 -38 385 -128 525 -277 129 -137 184
-260 192 -436 8 -142 -34 -485 -52 -437 -66 172 -154 345 -236 467 l-39 56 33
28 c17 15 47 33 65 41 36 15 51 38 34 55 -14 14 -70 -5 -123 -44 l-42 -31 -21
29 c-11 16 -47 58 -81 92 l-60 64 25 20 c73 58 100 87 94 102 -10 25 -34 19
-83 -22 -25 -20 -53 -43 -62 -50 -15 -11 -26 -7 -74 27 -116 82 -320 137 -320
87 0 -16 16 -23 87 -41 209 -53 371 -198 556 -501 79 -128 164 -307 203 -426
l30 -93 -17 -90 c-32 -173 -85 -401 -121 -520 -128 -432 -414 -816 -797 -1074
-85 -57 -121 -77 -112 -62 17 27 47 226 51 335 l4 121 33 8 c18 4 63 19 101
33 49 19 67 31 67 44 0 29 -19 29 -113 -3 -49 -16 -89 -28 -91 -26 -1 2 -12
56 -23 119 -12 63 -25 124 -28 136 -6 18 6 25 107 65 81 31 114 49 116 63 7
35 -13 34 -113 -5 -55 -21 -107 -41 -116 -44 -12 -4 -22 9 -39 57 -33 90 -95
211 -156 303 -77 116 -98 139 -117 132 -28 -10 -20 -32 43 -119 69 -94 166
-286 203 -398 52 -161 62 -230 62 -450 -1 -214 -10 -280 -53 -380 -18 -43 -26
-49 -108 -87 -92 -43 -294 -113 -324 -113 -14 0 -19 13 -24 73 -23 239 -94
487 -203 701 l-40 79 91 61 c63 42 92 68 94 84 3 18 -1 22 -22 22 -14 0 -28
-5 -32 -11 -8 -14 -139 -99 -152 -99 -5 0 -29 30 -54 68 -40 60 -104 142 -199
255 l-32 38 24 17 c85 59 207 206 196 236 -10 25 -41 18 -60 -13 -29 -49 -84
-111 -142 -158 l-54 -45 -98 82 c-54 45 -128 100 -165 123 -37 23 -67 45 -68
48 0 3 22 46 50 95 54 96 57 106 37 123 -18 14 -32 -2 -80 -89 -62 -113 -55
-108 -123 -78 -107 48 -209 71 -324 71 -58 0 -116 -3 -129 -8 l-24 -7 6 62
c18 167 90 363 177 481 35 47 55 63 128 99 104 52 216 91 332 116 118 26 408
26 530 0 191 -41 360 -118 516 -234 87 -65 324 -295 324 -315 0 -5 16 -25 35
-44 91 -88 199 -275 239 -415 19 -66 28 -83 42 -83 16 0 19 7 17 46 l-1 46 59
28 c63 31 76 47 53 66 -13 10 -25 8 -71 -15 -30 -15 -56 -26 -58 -24 -8 12
-85 179 -85 186 0 5 61 40 135 77 94 48 135 74 135 86 0 36 -34 27 -170 -43
-77 -39 -141 -70 -143 -67 -2 2 -27 37 -57 78 l-54 74 37 32 c40 35 44 46 23
64 -10 9 -22 4 -51 -19 -21 -16 -41 -30 -44 -30 -3 0 -28 25 -54 55 l-48 55
21 29 c11 17 39 45 62 64 28 24 39 39 35 51 -11 29 -42 17 -97 -39 -30 -30
-59 -55 -65 -55 -6 0 -24 14 -41 31 -16 18 -61 57 -101 89 l-71 57 35 64 c20
35 48 83 64 106 35 51 37 73 7 73 -17 0 -35 -18 -69 -73 -26 -39 -54 -87 -63
-104 -19 -39 -20 -39 -54 -14 -109 77 -310 148 -526 186 l-39 6 6 89 c6 89 -3
119 -30 102 -12 -8 -33 -107 -33 -158 l0 -31 -157 -6 c-132 -4 -177 -10 -274
-35 -64 -16 -138 -40 -164 -51 -27 -12 -50 -20 -52 -18 -2 2 29 33 69 69 167
148 340 272 552 393 l118 68 122 -6 c286 -14 533 -101 749 -263 148 -111 301
-295 392 -472 22 -42 32 -52 49 -50 30 4 24 31 -29 126 -60 107 -145 220 -233
311 -86 89 -86 96 -1 183 63 64 66 70 46 86 -10 9 -22 5 -49 -13 -36 -25 -108
-114 -108 -134 0 -17 -7 -14 -65 29 -29 22 -84 56 -122 77 -37 20 -70 38 -72
40 -2 1 10 40 28 85 32 82 31 103 -4 96 -11 -2 -28 -30 -47 -79 l-30 -77 -77
28 c-100 36 -245 69 -351 78 l-85 7 60 29 c238 112 534 208 743 240 119 19
318 19 422 1z m-2040 -1654 c169 -57 326 -159 492 -319 332 -320 538 -754 583
-1229 7 -72 33 -60 -210 -98 -274 -43 -336 -56 -480 -97 -298 -86 -352 -89
-443 -20 -28 21 -38 24 -60 15 -22 -8 -36 -5 -82 20 -187 101 -342 260 -406
418 -68 167 -53 332 65 719 21 69 44 144 50 167 6 23 16 45 21 48 17 10 220
-14 292 -34 126 -36 279 -117 366 -192 36 -32 60 -37 69 -14 7 20 -13 42 -86
95 -58 42 -58 43 -53 86 7 65 -3 94 -34 94 -24 0 -25 -2 -19 -44 8 -49 0 -73
-18 -58 -24 20 -144 66 -227 88 l-85 22 -3 48 c-4 59 -17 78 -43 63 -15 -7
-19 -21 -19 -57 l0 -47 -66 3 c-66 4 -66 4 -60 30 42 199 56 271 56 289 0 16
8 24 28 29 15 3 32 8 37 10 6 2 62 2 125 0 97 -3 130 -8 210 -35z"/>
</g>
</svg>
